<?xml version="1.0" encoding="UTF-8" standalone="no"?>
<!-- Created with Inkscape (http://www.inkscape.org/) -->

<svg
   version="1.1"
   id="svg9"
   xml:space="preserve"
   width="427.30359"
   height="52.913464"
   viewBox="0 0 427.30358 52.913464"
   xmlns="http://www.w3.org/2000/svg"
   xmlns:svg="http://www.w3.org/2000/svg"><defs
     id="defs13"><clipPath
       clipPathUnits="userSpaceOnUse"
       id="clipPath23"><path
         d="M 0,0 H 841.89 V 595.281 H 0 Z"
         id="path21" /></clipPath></defs><g
     id="g15"
     transform="matrix(1.3333333,0,0,-1.3333333,-544.77814,440.20799)"><g
       id="g17"><g
         id="g19"
         clip-path="url(#clipPath23)"><g
           id="g843"
           transform="translate(437.1523,306.6421)"><path
             d="M 0,0 C -0.106,0.604 -0.267,1.188 -0.513,1.729 -1.279,3.384 -2.344,4.772 -3.945,5.707 -6.433,7.16 -9.441,7.15 -11.902,5.66 -13.017,4.982 -13.931,4.02 -14.527,2.852 -14.722,2.455 -14.888,2.044 -15.021,1.62 c -0.648,-2.061 -0.626,-4.831 0.542,-6.713 0.386,-0.615 0.937,-1.143 1.612,-1.403 0.674,-0.258 1.477,-0.233 2.081,0.16 0.784,0.506 0.924,1.472 0.776,2.33 -0.183,1.095 -0.327,2.177 0.078,3.247 0.128,0.342 0.313,0.671 0.573,0.926 0.163,0.156 0.355,0.274 0.553,0.38 0.423,0.205 0.91,0.299 1.375,0.222 0.813,-0.132 1.482,-0.767 1.844,-1.506 0.362,-0.746 0.46,-1.581 0.499,-2.408 0.172,-3.591 -0.687,-7.312 -1.605,-10.765 -0.09,-0.353 -0.19,-0.708 -0.288,-1.06 -0.08,-0.273 -0.218,-0.622 -0.047,-0.886 0.077,-0.112 0.193,-0.195 0.32,-0.247 0.533,-0.214 0.967,0.112 1.326,0.474 2.106,2.117 3.455,4.851 4.377,7.665 0.347,1.047 0.641,2.112 0.842,3.202 C 0.109,-3.274 0.265,-1.571 0,0"
             style="fill:#009591;fill-opacity:1;fill-rule:nonzero;stroke:none"
             id="path845" /></g><g
           id="g847"
           transform="translate(452.2266,323.2461)"><path
             d="M 0,0 C 0,0.536 -0.476,0.893 -0.985,0.875 -1.508,0.854 -1.993,0.589 -2.468,0.407 c -9.264,-3.524 -19.715,-4.195 -29.478,-2.781 -1.669,0.237 -3.364,0.575 -5.044,0.838 -1.05,0.164 -2.086,0.398 -3.151,0.483 -0.902,0.07 -2.025,0.101 -2.755,-0.532 -0.965,-0.83 -0.897,-2.406 -0.35,-3.446 0.657,-1.25 1.806,-2.188 3.001,-2.903 1.159,-0.691 2.544,-1.431 3.929,-1.339 3.731,0.235 7.453,0.599 11.162,1.078 6.325,0.819 12.956,1.598 18.896,4.053 1.945,0.798 3.859,1.8 5.523,3.098 C -0.431,-0.818 0,-0.442 0,0"
             style="fill:#009591;fill-opacity:1;fill-rule:nonzero;stroke:none"
             id="path849" /></g><g
           id="g851"
           transform="translate(425.6563,326.417)"><path
             d="m 0,0 c 0,-2.013 1.635,-3.644 3.646,-3.644 2.013,0 3.646,1.631 3.646,3.644 0,0.302 -0.07,0.601 -0.198,0.873 C 6.781,1.536 6.432,1.86 6.465,2.652 6.511,3.723 5.139,3.739 4.398,3.739 3.593,3.739 2.738,3.625 2.009,3.26 1.432,2.968 0.934,2.522 0.579,1.975 0.218,1.414 0.018,0.755 0.004,0.088 0,0.055 0,0.029 0,0"
             style="fill:#ed1651;fill-opacity:1;fill-rule:nonzero;stroke:none"
             id="path853" /></g><g
           id="g855"
           transform="translate(472.2051,318.8643)"><path
             d="m 0,0 v -20.575 h -4.026 v 9.903 h -8.349 v -9.903 h -4.026 V 0 h 4.026 v -7.996 h 8.349 V 0 Z"
             style="fill:#231f20;fill-opacity:1;fill-rule:nonzero;stroke:none"
             id="path857" /></g><g
           id="g859"
           transform="translate(483.2236,305.9888)"><path
             d="m 0,0 -1.969,-0.264 c -1.824,-0.237 -3.087,-1.291 -3.087,-2.849 0,-1.354 0.912,-2.262 1.94,-2.262 1.706,0 3.116,0.847 3.116,4.083 z m 0.884,-7.699 c -0.207,0.178 -0.59,0.822 -0.615,1.349 -1.207,-1.262 -2.885,-1.671 -4.413,-1.671 -2.76,0 -4.849,1.85 -4.849,4.757 0,2.737 1.999,4.969 5.673,5.353 l 3.291,0.384 c 0,2.527 -1.325,3.259 -2.733,3.259 -1.706,0 -3.261,-0.824 -4.586,-2.029 l -0.675,2.968 c 1.586,1.119 3.232,1.648 5.496,1.648 2.881,0 6.347,-1.411 6.347,-5.76 V -3.85 c 0,-1.204 0.178,-2.673 0.735,-3.849 z"
             style="fill:#231f20;fill-opacity:1;fill-rule:nonzero;stroke:none"
             id="path861" /></g><g
           id="g863"
           transform="translate(493.5996,314.0176)"><path
             d="m 0,0 v -1.357 c 1.088,1.091 2.556,1.648 4.084,1.648 3.765,0 6.082,-2.32 6.082,-6.143 v -9.876 h -3.85 v 9.316 c 0,2.412 -1.115,4.026 -3.087,4.026 -1.791,0 -3.204,-1.558 -3.204,-4.143 v -9.199 H -3.794 V 0 Z"
             style="fill:#231f20;fill-opacity:1;fill-rule:nonzero;stroke:none"
             id="path865" /></g><g
           id="g867"
           transform="translate(514.6689,305.9888)"><path
             d="m 0,0 -1.969,-0.264 c -1.821,-0.237 -3.085,-1.291 -3.085,-2.849 0,-1.354 0.908,-2.262 1.938,-2.262 1.708,0 3.116,0.847 3.116,4.083 z m 0.883,-7.699 c -0.205,0.178 -0.585,0.822 -0.617,1.349 -1.204,-1.262 -2.883,-1.671 -4.412,-1.671 -2.76,0 -4.844,1.85 -4.844,4.757 0,2.737 1.998,4.969 5.67,5.353 l 3.293,0.384 c 0,2.527 -1.324,3.259 -2.736,3.259 -1.703,0 -3.26,-0.824 -4.584,-2.029 l -0.676,2.968 c 1.588,1.119 3.235,1.648 5.5,1.648 2.877,0 6.347,-1.411 6.347,-5.76 V -3.85 c 0,-1.204 0.175,-2.673 0.733,-3.849 z"
             style="fill:#231f20;fill-opacity:1;fill-rule:nonzero;stroke:none"
             id="path869" /></g><g
           id="g871"
           transform="translate(541.0898,318.8643)"><path
             d="m 0,0 v -2.672 h -7.612 v -6.557 h 7.439 v -2.648 h -7.439 v -8.698 h -4.03 V 0 Z"
             style="fill:#231f20;fill-opacity:1;fill-rule:nonzero;stroke:none"
             id="path873" /></g><path
           d="m 543.119,314.018 h 3.849 V 298.29 h -3.849 z m -0.296,3.787 c 0,1.237 0.968,2.236 2.205,2.236 1.233,0 2.235,-0.999 2.235,-2.236 0,-1.23 -1.002,-2.203 -2.235,-2.203 -1.237,0 -2.205,0.973 -2.205,2.203"
           style="fill:#231f20;fill-opacity:1;fill-rule:nonzero;stroke:none"
           id="path875" /><g
           id="g877"
           transform="translate(553.7266,314.0176)"><path
             d="m 0,0 v -1.357 c 1.092,1.091 2.559,1.648 4.086,1.648 3.761,0 6.082,-2.32 6.082,-6.143 v -9.876 H 6.32 v 9.316 c 0,2.412 -1.119,4.026 -3.088,4.026 -1.794,0 -3.203,-1.558 -3.203,-4.143 v -9.199 h -3.82 V 0 Z"
             style="fill:#231f20;fill-opacity:1;fill-rule:nonzero;stroke:none"
             id="path879" /></g><g
           id="g881"
           transform="translate(574.8008,305.9888)"><path
             d="m 0,0 -1.975,-0.264 c -1.82,-0.237 -3.084,-1.291 -3.084,-2.849 0,-1.354 0.914,-2.262 1.943,-2.262 1.703,0 3.116,0.847 3.116,4.083 z m 0.882,-7.699 c -0.205,0.178 -0.591,0.822 -0.616,1.349 -1.204,-1.262 -2.882,-1.671 -4.411,-1.671 -2.76,0 -4.845,1.85 -4.845,4.757 0,2.737 1.99,4.969 5.668,5.353 l 3.29,0.384 c 0,2.527 -1.321,3.259 -2.731,3.259 -1.703,0 -3.263,-0.824 -4.587,-2.029 l -0.676,2.968 c 1.588,1.119 3.235,1.648 5.502,1.648 2.875,0 6.344,-1.411 6.344,-5.76 V -3.85 c 0,-1.204 0.174,-2.673 0.736,-3.849 z"
             style="fill:#231f20;fill-opacity:1;fill-rule:nonzero;stroke:none"
             id="path883" /></g><g
           id="g885"
           transform="translate(585.1738,314.0176)"><path
             d="m 0,0 v -1.357 c 1.087,1.091 2.558,1.648 4.084,1.648 3.765,0 6.087,-2.32 6.087,-6.143 v -9.876 H 6.316 v 9.316 c 0,2.412 -1.113,4.026 -3.086,4.026 -1.787,0 -3.205,-1.558 -3.205,-4.143 v -9.199 H -3.792 V 0 Z"
             style="fill:#231f20;fill-opacity:1;fill-rule:nonzero;stroke:none"
             id="path887" /></g><g
           id="g889"
           transform="translate(609.6855,302.1113)"><path
             d="m 0,0 0.468,-2.821 c -1.47,-1.001 -3.263,-1.296 -4.492,-1.296 -5.967,0 -8.232,4.617 -8.232,8.083 0,4.087 2.967,8.231 8.406,8.231 1.289,0 2.76,-0.291 3.996,-1.086 L -0.416,8.405 c -1.084,0.821 -2.172,1.116 -3.262,1.116 -2.172,0 -4.639,-1.819 -4.639,-5.434 0,-2.914 1.852,-5.528 4.639,-5.528 1.117,0 2.324,0.321 3.678,1.441"
             style="fill:#231f20;fill-opacity:1;fill-rule:nonzero;stroke:none"
             id="path891" /></g><path
           d="m 612.182,314.018 h 3.851 V 298.29 h -3.851 z m -0.295,3.787 c 0,1.237 0.968,2.236 2.203,2.236 1.237,0 2.235,-0.999 2.235,-2.236 0,-1.23 -0.998,-2.203 -2.235,-2.203 -1.235,0 -2.203,0.973 -2.203,2.203"
           style="fill:#231f20;fill-opacity:1;fill-rule:nonzero;stroke:none"
           id="path893" /><g
           id="g895"
           transform="translate(627.3477,305.9888)"><path
             d="m 0,0 -1.971,-0.264 c -1.821,-0.237 -3.087,-1.291 -3.087,-2.849 0,-1.354 0.913,-2.262 1.942,-2.262 1.704,0 3.116,0.847 3.116,4.083 z m 0.882,-7.699 c -0.205,0.178 -0.589,0.822 -0.619,1.349 -1.203,-1.262 -2.879,-1.671 -4.408,-1.671 -2.764,0 -4.848,1.85 -4.848,4.757 0,2.737 2,4.969 5.673,5.353 l 3.291,0.384 c 0,2.527 -1.325,3.259 -2.735,3.259 -1.705,0 -3.26,-0.824 -4.584,-2.029 l -0.675,2.968 c 1.585,1.119 3.232,1.648 5.497,1.648 2.877,0 6.346,-1.411 6.346,-5.76 V -3.85 c 0,-1.204 0.176,-2.673 0.735,-3.849 z"
             style="fill:#231f20;fill-opacity:1;fill-rule:nonzero;stroke:none"
             id="path897" /></g><path
           d="m 637.896,298.29 h -3.852 v 21.457 h 3.852 z"
           style="fill:#231f20;fill-opacity:1;fill-rule:nonzero;stroke:none"
           id="path899" /><g
           id="g901"
           transform="translate(662.6152,308.1348)"><path
             d="m 0,0 h 4.025 v -8.614 c -2.059,-0.996 -5.054,-1.526 -7.027,-1.526 -7.14,0 -11.167,4.788 -11.167,10.639 0,5.409 4.056,10.525 11.402,10.525 2.353,0 5.175,-0.736 6.616,-1.762 L 3.173,6.406 c -1.677,1.322 -3.853,1.856 -5.88,1.856 -4.527,0 -7.317,-3.265 -7.317,-7.763 0,-4.91 3.232,-7.877 6.996,-7.877 1,0 2.205,0.089 3.028,0.532 z"
             style="fill:#231f20;fill-opacity:1;fill-rule:nonzero;stroke:none"
             id="path903" /></g><g
           id="g905"
           transform="translate(672.959,314.0176)"><path
             d="m 0,0 v -1.357 c 0.882,0.882 2.084,1.648 3.645,1.648 0.823,0 1.762,-0.057 2.79,-0.647 L 5.729,-3.089 C 4.819,-2.471 3.82,-2.386 3.145,-2.441 1.94,-2.529 0.028,-3.648 0.028,-6.589 v -9.139 H -3.821 V 0 Z"
             style="fill:#231f20;fill-opacity:1;fill-rule:nonzero;stroke:none"
             id="path907" /></g><g
           id="g909"
           transform="translate(684.125,306.165)"><path
             d="m 0,0 c 0,-3.466 1.615,-5.761 3.644,-5.761 2.029,0 3.674,2.295 3.674,5.761 0,3.47 -1.645,5.763 -3.674,5.763 C 1.615,5.763 0,3.47 0,0 m -3.996,0 c 0,4.763 3.35,8.143 7.64,8.143 4.293,0 7.669,-3.38 7.669,-8.143 0,-4.791 -3.376,-8.17 -7.669,-8.17 -4.29,0 -7.64,3.379 -7.64,8.17"
             style="fill:#231f20;fill-opacity:1;fill-rule:nonzero;stroke:none"
             id="path911" /></g><g
           id="g913"
           transform="translate(707.6367,298.2896)"><path
             d="m 0,0 v 1.35 c -1.086,-1.088 -2.557,-1.645 -4.087,-1.645 -3.763,0 -6.085,2.323 -6.085,6.146 v 9.877 h 3.853 V 6.407 c 0,-2.413 1.119,-4.027 3.088,-4.027 1.791,0 3.205,1.557 3.205,4.148 v 9.2 H 3.789 V 0 Z"
             style="fill:#231f20;fill-opacity:1;fill-rule:nonzero;stroke:none"
             id="path915" /></g><g
           id="g917"
           transform="translate(717.8613,306.1074)"><path
             d="m 0,0 c 0,-3.382 1.616,-5.759 3.589,-5.759 2.114,0 3.674,2.496 3.674,5.759 0,3.295 -1.56,5.729 -3.674,5.729 C 1.562,5.729 0,3.295 0,0 M -3.879,-13.699 V 7.91 H 0 V 6.553 c 0.972,1.092 2.647,1.648 4.086,1.648 4.322,0 7.114,-3.262 7.114,-8.169 0,-4.822 -2.792,-8.145 -7.025,-8.145 -1.648,0 -3.147,0.618 -4.175,1.56 v -7.146 z"
             style="fill:#231f20;fill-opacity:1;fill-rule:nonzero;stroke:none"
             id="path919" /></g></g></g></g></svg>
