<?xml version="1.0" encoding="UTF-8" standalone="no"?>
<!-- Created with Inkscape (http://www.inkscape.org/) -->

<svg
   version="1.1"
   id="svg9"
   width="625.04663"
   height="116.23146"
   viewBox="0 0 625.04663 116.23146"
   xmlns="http://www.w3.org/2000/svg"
   xmlns:svg="http://www.w3.org/2000/svg">
  <defs
     id="defs13">
    <clipPath
       clipPathUnits="userSpaceOnUse"
       id="clipPath25">
      <path
         d="M 0,114.386 H 586.384 V 0 H 0 Z"
         id="path23" />
    </clipPath>
  </defs>
  <g
     id="g17"
     transform="matrix(1.3333333,0,0,-1.3333333,-62.377865,136.1308)">
    <g
       id="g19">
      <g
         id="g21"
         clip-path="url(#clipPath25)">
        <g
           id="g27"
           transform="translate(114.0864,60.4961)">
          <path
             d="m 0,0 c -7.572,5.147 -17.269,3.047 -22.356,-4.693 -4.255,-6.463 -10.666,-7.27 -13.157,-7.27 -8.097,0 -13.643,5.699 -15.282,11.595 h -0.003 c -0.019,0.059 -0.031,0.109 -0.043,0.165 -0.016,0.063 -0.037,0.131 -0.054,0.2 -0.642,2.457 -0.803,3.637 -0.803,6.247 0,14.102 14.459,29.798 35.295,29.798 21.338,0 33.542,-16.241 36.685,-25.267 -0.058,0.158 -0.098,0.317 -0.164,0.479 -6.051,17.652 -22.791,30.348 -42.496,30.348 -24.807,0 -44.925,-20.112 -44.925,-44.921 0,-22.177 16.001,-41.16 38.182,-41.16 17.696,0 29.588,9.922 35.047,23.594 C 8.915,-13.407 6.795,-4.619 0,0"
             style="fill:#003863;fill-opacity:1;fill-rule:nonzero;stroke:none"
             id="path29" />
        </g>
        <g
           id="g31"
           transform="translate(134.6465,70.3965)">
          <path
             d="m 0,0 c -2.62,8.8 -14.92,26.142 -36.963,26.142 -20.836,0 -35.295,-15.697 -35.295,-29.798 0,-2.611 0.161,-3.79 0.803,-6.247 -0.268,1.075 -0.418,2.154 -0.418,3.204 0,14.684 14.705,24.855 29.814,24.855 20.461,0 37.041,-16.584 37.041,-37.035 0,-16.038 -9.221,-29.91 -22.634,-36.582 l 0.003,-0.011 C -10.362,-49.214 1.977,-32.66 1.977,-13.22 1.977,-8.621 1.357,-4.564 0,0"
             style="fill:#e4032e;fill-opacity:1;fill-rule:nonzero;stroke:none"
             id="path33" />
        </g>
        <g
           id="g35"
           transform="translate(180.3081,86.5547)">
          <path
             d="m 0,0 v -21.127 h -3.396 v 17.002 l -5.518,-17.002 h -3.272 l -5.518,17.002 v -17.002 h -3.392 V 0 h 5.209 L -10.553,-16.46 -5.214,0 Z"
             style="fill:#575756;fill-opacity:1;fill-rule:nonzero;stroke:none"
             id="path37" />
        </g>
        <g
           id="g39"
           transform="translate(294.8262,82.2178)">
          <path
             d="M 0,0 C 0,1.415 0.404,2.492 1.195,3.23 2.001,3.969 3.211,4.337 4.852,4.337 H 6.52 V 1.578 h -1 C 4.87,1.578 4.37,1.438 4.019,1.168 3.667,0.897 3.492,0.397 3.492,-0.332 V -1.606 H 6.52 V -4.393 H 3.492 V -16.79 H 0 v 12.397 h -2.608 v 2.787 H 0 Z"
             style="fill:#575756;fill-opacity:1;fill-rule:nonzero;stroke:none"
             id="path41" />
        </g>
        <g
           id="g43"
           transform="translate(322.5229,68.0322)">
          <path
             d="M 0,0 C 2.203,0 4.211,0.71 6.032,2.121 L 7.49,-0.455 C 5.612,-2.13 3.113,-2.968 0,-2.968 c -3.048,0 -5.633,1.044 -7.745,3.137 -2.112,2.092 -3.166,4.683 -3.166,7.774 0,3.109 1.054,5.714 3.166,7.806 2.112,2.091 4.697,3.134 7.745,3.134 3.078,0 5.528,-0.847 7.372,-2.543 L 5.943,13.759 C 4.146,15.199 2.166,15.915 0,15.915 c -2.021,0 -3.751,-0.748 -5.178,-2.243 -1.462,-1.555 -2.189,-3.467 -2.189,-5.729 0,-2.266 0.727,-4.164 2.189,-5.7 C -3.751,0.749 -2.021,0 0,0"
             style="fill:#575756;fill-opacity:1;fill-rule:nonzero;stroke:none"
             id="path45" />
        </g>
        <g
           id="g47"
           transform="translate(342.8564,72.9736)">
          <path
             d="M 0,0 V 7.638 H 3.458 V -7.546 H 0.152 v 1.996 c -0.425,-0.745 -0.985,-1.309 -1.693,-1.691 -0.832,-0.447 -1.689,-0.668 -2.578,-0.668 -1.778,0 -3.204,0.605 -4.291,1.816 -1.082,1.214 -1.619,2.851 -1.619,4.912 v 8.819 h 3.427 v -7.971 c 0,-1.595 0.264,-2.787 0.8,-3.562 0.534,-0.776 1.35,-1.168 2.444,-1.168 0.544,0 1.087,0.188 1.635,0.561 0.545,0.375 0.955,0.876 1.236,1.504 C -0.162,-2.25 0,-1.252 0,0"
             style="fill:#575756;fill-opacity:1;fill-rule:nonzero;stroke:none"
             id="path49" />
        </g>
        <path
           d="m 350.205,86.555 h 3.429 V 65.428 h -3.429 z"
           style="fill:#575756;fill-opacity:1;fill-rule:nonzero;stroke:none"
           id="path51" />
        <g
           id="g53"
           transform="translate(362.1416,85.4922)">
          <path
             d="M 0,0 V -4.881 H 3.303 V -7.667 H 0 v -7.73 c 0,-0.731 0.178,-1.228 0.532,-1.501 0.351,-0.274 0.855,-0.411 1.495,-0.411 h 1.276 v -2.755 H 1.208 c -1.63,0 -2.826,0.361 -3.572,1.088 -0.747,0.732 -1.127,1.807 -1.127,3.245 v 8.064 h -2.602 v 2.786 h 2.602 V 0 Z"
             style="fill:#575756;fill-opacity:1;fill-rule:nonzero;stroke:none"
             id="path55" />
        </g>
        <g
           id="g57"
           transform="translate(378.3501,72.9736)">
          <path
             d="M 0,0 V 7.638 H 3.46 V -7.546 H 0.159 v 1.996 c -0.432,-0.745 -0.995,-1.309 -1.701,-1.691 -0.829,-0.447 -1.688,-0.668 -2.581,-0.668 -1.779,0 -3.205,0.605 -4.288,1.816 -1.08,1.214 -1.622,2.851 -1.622,4.912 v 8.819 h 3.431 v -7.971 c 0,-1.595 0.261,-2.787 0.8,-3.562 0.533,-0.776 1.348,-1.168 2.44,-1.168 0.544,0 1.093,0.188 1.637,0.561 0.548,0.375 0.959,0.876 1.245,1.504 C -0.158,-2.25 0,-1.252 0,0"
             style="fill:#575756;fill-opacity:1;fill-rule:nonzero;stroke:none"
             id="path59" />
        </g>
        <g
           id="g61"
           transform="translate(385.7988,65.4277)">
          <path
             d="m 0,0 v 15.184 h 3.249 v -2.271 c 0.501,0.743 1.121,1.32 1.845,1.724 0.872,0.525 1.892,0.792 3.057,0.792 H 8.403 V 12.337 H 8.036 C 6.598,12.337 5.459,11.9 4.616,11.033 3.818,10.184 3.432,8.861 3.432,7.061 V 0 Z"
             style="fill:#575756;fill-opacity:1;fill-rule:nonzero;stroke:none"
             id="path63" />
        </g>
        <g
           id="g65"
           transform="translate(398.7993,74.2148)">
          <path
             d="M 0,0 H 8.428 C 8.386,0.992 7.974,1.897 7.186,2.715 6.398,3.534 5.39,3.942 4.187,3.942 2.93,3.942 1.899,3.5 1.094,2.61 0.503,1.942 0.142,1.07 0,0 M 0.062,-2.728 C 0.269,-3.656 0.693,-4.414 1.362,-5 2.338,-5.892 3.62,-6.334 5.211,-6.334 c 1.678,0 3.245,0.62 4.703,1.851 l 1.031,-2.546 C 9.305,-8.445 7.368,-9.15 5.125,-9.15 c -2.567,0 -4.657,0.724 -6.26,2.183 -1.609,1.453 -2.412,3.363 -2.412,5.726 0,2.325 0.713,4.238 2.137,5.741 1.428,1.511 3.288,2.264 5.597,2.264 2.266,0 4.117,-0.75 5.558,-2.245 1.444,-1.498 2.167,-3.346 2.167,-5.546 0,-0.607 -0.052,-1.175 -0.151,-1.701 z"
             style="fill:#575756;fill-opacity:1;fill-rule:nonzero;stroke:none"
             id="path67" />
        </g>
        <g
           id="g69"
           transform="translate(415.0444,64.0928)">
          <path
             d="m 0,0 h -0.152 c -0.606,0 -1.133,0.212 -1.57,0.634 -0.453,0.428 -0.675,0.943 -0.675,1.551 0,0.624 0.222,1.146 0.675,1.574 0.437,0.422 0.964,0.636 1.57,0.636 0.63,0 1.156,-0.201 1.572,-0.607 C 1.931,3.304 2.186,2.627 2.186,1.757 2.186,0.282 1.813,-0.94 1.092,-1.91 0.383,-2.819 -0.427,-3.452 -1.33,-3.817 l -0.914,0.998 c 0.833,0.527 1.443,1.132 1.848,1.821 C -0.214,-0.695 -0.082,-0.364 0,0"
             style="fill:#575756;fill-opacity:1;fill-rule:nonzero;stroke:none"
             id="path71" />
        </g>
        <g
           id="g73"
           transform="translate(426.8501,69.7021)">
          <path
             d="m 0,0 2.326,2.361 c 0.631,-1.331 1.42,-2.314 2.368,-2.938 1.035,-0.689 2.069,-1.03 3.131,-1.03 1.104,0 2.057,0.295 2.841,0.879 0.793,0.562 1.182,1.313 1.182,2.241 0,0.829 -0.398,1.499 -1.198,2.013 C 9.853,4.047 8.991,4.485 8.06,4.848 7.127,5.19 6.166,5.566 5.154,5.969 3.532,6.556 2.374,7.323 1.679,8.274 c -0.698,0.95 -1.046,1.948 -1.046,3.002 0,1.637 0.695,3.034 2.096,4.196 1.39,1.164 3.095,1.741 5.116,1.741 2.121,0 3.854,-0.544 5.186,-1.632 0.689,-0.53 1.161,-1.113 1.425,-1.758 l -2.123,-2.246 c -0.182,0.363 -0.515,0.776 -1,1.242 -1.03,0.932 -2.253,1.394 -3.662,1.394 -0.895,0 -1.682,-0.247 -2.356,-0.743 C 4.642,12.977 4.302,12.316 4.302,11.487 4.302,10.236 5.671,9.121 8.426,8.151 8.929,7.992 9.46,7.808 10.005,7.605 11.845,6.9 13.22,6.062 14.14,5.106 c 0.919,-0.957 1.378,-2.148 1.378,-3.561 0,-1.678 -0.72,-3.119 -2.154,-4.337 -1.409,-1.23 -3.242,-1.846 -5.487,-1.846 -2.065,0 -3.771,0.464 -5.122,1.394 C 1.44,-2.336 0.521,-1.254 0,0"
             style="fill:#575756;fill-opacity:1;fill-rule:nonzero;stroke:none"
             id="path75" />
        </g>
        <g
           id="g77"
           transform="translate(448.5757,72.0322)">
          <path
             d="m 0,0 c 0.12,-1.131 0.541,-2.08 1.27,-2.847 0.811,-0.85 1.823,-1.275 3.03,-1.275 1.315,0 2.361,0.482 3.143,1.442 0.778,0.958 1.164,2.179 1.164,3.653 0,1.456 -0.386,2.671 -1.164,3.655 C 6.661,5.602 5.615,6.096 4.3,6.096 3.093,6.096 2.081,5.671 1.27,4.821 0.541,4.054 0.12,3.094 0,1.944 -0.063,1.315 -0.063,0.67 0,0 m 4.635,-6.968 c -1.863,0 -3.416,0.713 -4.665,2.151 v -7.67 H -3.458 V 8.579 H -0.15 V 6.64 c 1.31,1.535 2.906,2.306 4.785,2.306 2.203,0 3.998,-0.793 5.383,-2.384 1.382,-1.584 2.078,-3.449 2.078,-5.589 0,-2.142 -0.696,-4.001 -2.078,-5.581 -1.385,-1.575 -3.18,-2.36 -5.383,-2.36"
             style="fill:#575756;fill-opacity:1;fill-rule:nonzero;stroke:none"
             id="path79" />
        </g>
        <g
           id="g81"
           transform="translate(470.5464,67.9102)">
          <path
             d="M 0,0 C 1.254,0 2.327,0.482 3.224,1.442 4.126,2.4 4.574,3.621 4.574,5.095 4.574,6.551 4.126,7.766 3.224,8.75 2.327,9.724 1.254,10.218 0,10.218 -1.236,10.218 -2.299,9.724 -3.2,8.75 -4.102,7.766 -4.548,6.551 -4.548,5.095 -4.548,3.621 -4.102,2.4 -3.2,1.442 -2.299,0.482 -1.236,0 0,0 m 0,-2.846 c -2.226,0 -4.123,0.759 -5.688,2.288 -1.569,1.524 -2.347,3.412 -2.347,5.653 0,2.243 0.778,4.134 2.347,5.667 1.565,1.535 3.462,2.306 5.688,2.306 2.24,0 4.141,-0.771 5.691,-2.306 C 7.251,9.229 8.027,7.338 8.027,5.095 8.027,2.854 7.251,0.966 5.691,-0.558 4.141,-2.087 2.24,-2.846 0,-2.846"
             style="fill:#575756;fill-opacity:1;fill-rule:nonzero;stroke:none"
             id="path83" />
        </g>
        <g
           id="g85"
           transform="translate(481.5415,65.4277)">
          <path
             d="m 0,0 v 15.184 h 3.247 v -2.271 c 0.503,0.743 1.12,1.32 1.843,1.724 0.873,0.525 1.889,0.792 3.059,0.792 H 8.397 V 12.337 H 8.03 C 6.599,12.337 5.46,11.9 4.603,11.033 3.82,10.184 3.428,8.861 3.428,7.061 V 0 Z"
             style="fill:#575756;fill-opacity:1;fill-rule:nonzero;stroke:none"
             id="path87" />
        </g>
        <g
           id="g89"
           transform="translate(497.8354,85.4922)">
          <path
             d="M 0,0 V -4.881 H 3.313 V -7.667 H 0 v -7.73 c 0,-0.731 0.19,-1.228 0.541,-1.501 0.351,-0.274 0.853,-0.411 1.498,-0.411 h 1.274 v -2.755 H 1.219 c -1.638,0 -2.828,0.361 -3.579,1.088 -0.744,0.732 -1.118,1.807 -1.118,3.245 v 8.064 h -2.606 v 2.786 h 2.606 V 0 Z"
             style="fill:#575756;fill-opacity:1;fill-rule:nonzero;stroke:none"
             id="path91" />
        </g>
        <g
           id="g93"
           transform="translate(502.8384,68.2432)">
          <path
             d="M 0,0 2.151,2.213 C 2.76,1.387 3.429,0.737 4.157,0.274 4.86,-0.148 5.619,-0.362 6.429,-0.362 c 0.764,0 1.417,0.16 1.949,0.472 C 8.919,0.42 9.184,0.839 9.184,1.367 9.184,1.893 8.928,2.3 8.416,2.594 7.896,2.888 7.281,3.165 6.577,3.429 5.743,3.69 4.897,3.981 4.034,4.308 2.861,4.73 2.003,5.279 1.453,5.944 0.909,6.609 0.639,7.368 0.639,8.218 c 0,1.254 0.585,2.316 1.757,3.196 1.169,0.88 2.551,1.321 4.152,1.321 1.696,0 3.084,-0.406 4.154,-1.214 0.545,-0.425 0.981,-0.95 1.304,-1.578 L 9.882,7.883 C 9.603,8.369 9.266,8.764 8.881,9.064 8.215,9.655 7.377,9.943 6.367,9.943 5.785,9.943 5.268,9.798 4.837,9.506 4.397,9.213 4.183,8.861 4.183,8.459 4.183,8.015 4.427,7.639 4.915,7.336 5.396,7.037 6.109,6.738 7.065,6.458 7.406,6.357 7.802,6.235 8.244,6.097 9.719,5.608 10.839,4.982 11.599,4.217 12.355,3.446 12.73,2.529 12.73,1.459 12.73,0.205 12.124,-0.885 10.912,-1.8 9.698,-2.719 8.153,-3.179 6.271,-3.179 4.697,-3.179 3.307,-2.815 2.093,-2.086 1.281,-1.607 0.583,-0.909 0,0"
             style="fill:#575756;fill-opacity:1;fill-rule:nonzero;stroke:none"
             id="path95" />
        </g>
        <g
           id="g97"
           transform="translate(164.6968,30.6475)">
          <path
             d="m 0,0 c 0.893,0 1.768,0.218 2.64,0.654 0.865,0.431 1.496,0.934 1.876,1.498 v 2.577 h -3.06 c -1.743,0 -2.95,-0.224 -3.641,-0.665 C -2.85,3.557 -3.184,2.95 -3.184,2.243 c 0,-0.649 0.282,-1.18 0.852,-1.604 C -1.768,0.214 -0.99,0 0,0 m 0.937,7.428 h 3.579 c 0,0.989 -0.38,1.734 -1.152,2.225 -0.766,0.498 -1.878,0.745 -3.334,0.745 h -0.093 c -1.37,0 -2.826,-0.326 -4.363,-0.971 l -0.878,2.7 c 1.597,0.684 3.352,1.04 5.277,1.059 H 0.03 c 2.549,0 4.506,-0.492 5.866,-1.469 C 7.257,10.736 7.94,9.177 7.94,7.035 V -2.363 H 4.668 v 1.666 C 4.024,-1.342 3.229,-1.842 2.29,-2.197 1.345,-2.551 0.393,-2.729 -0.575,-2.729 c -1.822,0 -3.294,0.485 -4.411,1.438 -1.123,0.965 -1.682,2.144 -1.682,3.534 0,1.557 0.698,2.84 2.086,3.854 1.297,0.885 3.139,1.331 5.519,1.331"
             style="fill:#575756;fill-opacity:1;fill-rule:nonzero;stroke:none"
             id="path99" />
        </g>
        <path
           d="m 184.306,80.611 h 3.449 V 65.427 h -3.449 z m 3.907,4.273 c 0,-0.581 -0.219,-1.097 -0.653,-1.529 -0.435,-0.435 -0.951,-0.653 -1.563,-0.653 -0.598,0 -1.122,0.218 -1.558,0.653 -0.435,0.432 -0.65,0.948 -0.65,1.529 0,0.608 0.215,1.128 0.65,1.562 0.436,0.436 0.96,0.654 1.558,0.654 0.612,0 1.128,-0.218 1.563,-0.654 0.434,-0.434 0.653,-0.954 0.653,-1.562"
           style="fill:#575756;fill-opacity:1;fill-rule:nonzero;stroke:none"
           id="path101" />
        <g
           id="g103"
           transform="translate(195.1772,73.0654)">
          <path
             d="M 0,0 V -7.638 H -3.425 V 7.546 h 3.308 V 5.516 C 0.281,6.224 0.864,6.8 1.637,7.245 2.409,7.686 3.232,7.913 4.121,7.913 5.924,7.913 7.361,7.3 8.442,6.078 9.523,4.854 10.063,3.221 10.063,1.182 v -8.82 H 6.611 v 7.94 C 6.611,1.916 6.349,3.113 5.823,3.895 5.296,4.672 4.485,5.062 3.393,5.062 2.827,5.062 2.275,4.877 1.749,4.503 1.209,4.126 0.802,3.617 0.517,2.971 0.171,2.22 0,1.229 0,0"
             style="fill:#575756;fill-opacity:1;fill-rule:nonzero;stroke:none"
             id="path105" />
        </g>
        <path
           d="m 209.116,80.611 h 3.455 V 65.427 h -3.455 z m 3.908,4.273 c 0,-0.581 -0.215,-1.097 -0.645,-1.529 -0.436,-0.435 -0.954,-0.653 -1.565,-0.653 -0.606,0 -1.128,0.218 -1.559,0.653 -0.439,0.432 -0.657,0.948 -0.657,1.529 0,0.608 0.218,1.128 0.657,1.562 0.431,0.436 0.953,0.654 1.559,0.654 0.611,0 1.129,-0.218 1.565,-0.654 0.43,-0.434 0.645,-0.954 0.645,-1.562"
           style="fill:#575756;fill-opacity:1;fill-rule:nonzero;stroke:none"
           id="path107" />
        <g
           id="g109"
           transform="translate(215.3833,68.2432)">
          <path
             d="M 0,0 2.158,2.213 C 2.76,1.387 3.427,0.737 4.154,0.274 c 0.709,-0.422 1.468,-0.636 2.273,-0.636 0.764,0 1.42,0.16 1.955,0.472 C 8.917,0.42 9.187,0.839 9.187,1.367 9.187,1.893 8.929,2.3 8.412,2.594 7.897,2.888 7.285,3.165 6.581,3.429 5.753,3.69 4.895,3.981 4.033,4.308 2.854,4.73 1.999,5.279 1.455,5.944 0.909,6.609 0.639,7.368 0.639,8.218 c 0,1.254 0.584,2.316 1.754,3.196 1.176,0.88 2.556,1.321 4.152,1.321 1.7,0 3.086,-0.406 4.158,-1.214 0.546,-0.425 0.975,-0.95 1.305,-1.578 L 9.881,7.883 C 9.601,8.369 9.264,8.764 8.881,9.064 8.215,9.655 7.376,9.943 6.371,9.943 5.781,9.943 5.274,9.798 4.837,9.506 4.399,9.213 4.182,8.861 4.182,8.459 4.182,8.015 4.426,7.639 4.915,7.336 5.396,7.037 6.113,6.738 7.063,6.458 7.409,6.357 7.807,6.235 8.245,6.097 9.717,5.608 10.835,4.982 11.593,4.217 12.349,3.446 12.727,2.529 12.727,1.459 12.727,0.205 12.124,-0.885 10.916,-1.8 9.7,-2.719 8.153,-3.179 6.28,-3.179 4.703,-3.179 3.308,-2.815 2.087,-2.086 1.28,-1.607 0.586,-0.909 0,0"
             style="fill:#575756;fill-opacity:1;fill-rule:nonzero;stroke:none"
             id="path111" />
        </g>
        <g
           id="g113"
           transform="translate(235.3721,85.4922)">
          <path
             d="M 0,0 V -4.881 H 3.302 V -7.667 H 0 v -7.73 c 0,-0.731 0.172,-1.228 0.53,-1.501 0.346,-0.274 0.848,-0.411 1.494,-0.411 h 1.278 v -2.755 H 1.204 c -1.632,0 -2.823,0.361 -3.566,1.088 -0.754,0.732 -1.13,1.807 -1.13,3.245 v 8.064 h -2.601 v 2.786 h 2.601 V 0 Z"
             style="fill:#575756;fill-opacity:1;fill-rule:nonzero;stroke:none"
             id="path115" />
        </g>
        <g
           id="g117"
           transform="translate(241.5454,65.4277)">
          <path
             d="m 0,0 v 15.184 h 3.243 v -2.271 c 0.505,0.743 1.121,1.32 1.855,1.724 0.861,0.525 1.889,0.792 3.057,0.792 H 8.397 V 12.337 H 8.031 C 6.599,12.337 5.458,11.9 4.606,11.033 3.819,10.184 3.429,8.861 3.429,7.061 V 0 Z"
             style="fill:#575756;fill-opacity:1;fill-rule:nonzero;stroke:none"
             id="path119" />
        </g>
        <g
           id="g121"
           transform="translate(257.2104,66.001)">
          <path
             d="m 0,0 -5.967,14.61 h 3.575 L 1.732,4.245 5.822,14.61 H 9.37 L 0.913,-6.456 h -3.516 z"
             style="fill:#575756;fill-opacity:1;fill-rule:nonzero;stroke:none"
             id="path123" />
        </g>
        <g
           id="g125"
           transform="translate(283.0669,67.9102)">
          <path
             d="M 0,0 C 1.257,0 2.333,0.482 3.232,1.442 4.127,2.4 4.579,3.621 4.579,5.095 4.579,6.551 4.127,7.766 3.232,8.75 2.333,9.724 1.257,10.218 0,10.218 -1.226,10.218 -2.292,9.724 -3.195,8.75 -4.094,7.766 -4.542,6.551 -4.542,5.095 -4.542,3.621 -4.094,2.4 -3.195,1.442 -2.292,0.482 -1.226,0 0,0 m 0,-2.846 c -2.214,0 -4.111,0.759 -5.68,2.288 -1.57,1.524 -2.346,3.412 -2.346,5.653 0,2.243 0.776,4.134 2.346,5.667 1.569,1.535 3.466,2.306 5.68,2.306 2.247,0 4.141,-0.771 5.704,-2.306 C 7.253,9.229 8.037,7.338 8.037,5.095 8.037,2.854 7.253,0.966 5.704,-0.558 4.141,-2.087 2.247,-2.846 0,-2.846"
             style="fill:#575756;fill-opacity:1;fill-rule:nonzero;stroke:none"
             id="path127" />
        </g>
        <g
           id="g129"
           transform="translate(179.9536,35.9248)">
          <path
             d="M 0,0 V -7.641 H -3.425 V 7.543 h 3.303 V 5.517 c 0.406,0.706 0.992,1.28 1.756,1.728 0.774,0.443 1.599,0.663 2.487,0.663 1.798,0 3.239,-0.609 4.316,-1.834 1.084,-1.22 1.625,-2.853 1.625,-4.895 v -8.82 H 6.604 V 0.3 c 0,1.613 -0.26,2.816 -0.787,3.594 C 5.292,4.673 4.486,5.06 3.393,5.06 2.826,5.06 2.275,4.874 1.743,4.498 1.206,4.127 0.796,3.617 0.514,2.968 0.166,2.221 0,1.231 0,0"
             style="fill:#575756;fill-opacity:1;fill-rule:nonzero;stroke:none"
             id="path131" />
        </g>
        <g
           id="g133"
           transform="translate(205.0146,34.8896)">
          <path
             d="m 0,0 c 0.064,0.667 0.064,1.314 0,1.944 -0.12,1.15 -0.544,2.106 -1.273,2.878 -0.809,0.845 -1.813,1.273 -3,1.273 -1.338,0 -2.383,-0.491 -3.152,-1.471 -0.767,-0.98 -1.157,-2.198 -1.157,-3.651 0,-1.477 0.39,-2.693 1.157,-3.653 0.769,-0.962 1.814,-1.437 3.152,-1.437 1.187,0 2.191,0.422 3,1.268 C -0.544,-2.079 -0.12,-1.129 0,0 m -4.611,8.943 c 1.802,0 3.346,-0.724 4.64,-2.181 v 7.759 H 3.484 V -6.605 H 0.152 v 1.909 c -1.273,-1.516 -2.861,-2.276 -4.763,-2.276 -2.221,0 -4.017,0.791 -5.396,2.366 -1.37,1.58 -2.054,3.434 -2.054,5.579 0,2.14 0.684,4.005 2.054,5.593 1.379,1.584 3.175,2.377 5.396,2.377"
             style="fill:#575756;fill-opacity:1;fill-rule:nonzero;stroke:none"
             id="path135" />
        </g>
        <g
           id="g137"
           transform="translate(229.4019,46.4434)">
          <path
             d="M 0,0 V -18.159 H -3.546 V 0 h -6.456 V 2.968 H 6.453 V 0 Z"
             style="fill:#575756;fill-opacity:1;fill-rule:nonzero;stroke:none"
             id="path139" />
        </g>
        <g
           id="g141"
           transform="translate(242.9131,30.7725)">
          <path
             d="m 0,0 c 1.26,0 2.331,0.476 3.229,1.437 0.9,0.96 1.347,2.176 1.347,3.653 0,1.453 -0.447,2.671 -1.347,3.651 C 2.331,9.722 1.26,10.212 0,10.212 c -1.235,0 -2.297,-0.49 -3.195,-1.471 -0.902,-0.98 -1.35,-2.198 -1.35,-3.651 0,-1.477 0.448,-2.693 1.35,-3.653 C -2.297,0.476 -1.235,0 0,0 m 0,-2.854 c -2.225,0 -4.115,0.766 -5.682,2.29 -1.564,1.524 -2.35,3.41 -2.35,5.654 0,2.243 0.786,4.132 2.35,5.667 1.567,1.536 3.457,2.304 5.682,2.304 2.245,0 4.145,-0.768 5.698,-2.304 C 7.252,9.222 8.032,7.333 8.032,5.09 8.032,2.846 7.252,0.96 5.698,-0.564 4.145,-2.088 2.245,-2.854 0,-2.854"
             style="fill:#575756;fill-opacity:1;fill-rule:nonzero;stroke:none"
             id="path143" />
        </g>
        <g
           id="g145"
           transform="translate(263.9497,35.835)">
          <path
             d="M 0,0 V 7.633 H 3.45 V -7.551 H 0.151 v 1.999 c -0.427,-0.745 -0.995,-1.313 -1.699,-1.696 -0.832,-0.446 -1.692,-0.669 -2.581,-0.669 -1.778,0 -3.202,0.608 -4.287,1.821 -1.081,1.21 -1.621,2.847 -1.621,4.911 v 8.818 h 3.425 v -7.971 c 0,-1.597 0.271,-2.783 0.805,-3.561 0.53,-0.777 1.351,-1.163 2.444,-1.163 0.536,0 1.083,0.182 1.628,0.556 0.551,0.377 0.964,0.878 1.244,1.5 C -0.164,-2.255 0,-1.257 0,0"
             style="fill:#575756;fill-opacity:1;fill-rule:nonzero;stroke:none"
             id="path147" />
        </g>
        <g
           id="g149"
           transform="translate(271.3989,28.2842)">
          <path
             d="m 0,0 v 15.184 h 3.241 v -2.273 c 0.502,0.75 1.122,1.323 1.849,1.731 0.866,0.523 1.893,0.785 3.062,0.785 h 0.239 v -3.09 H 8.03 C 6.597,12.337 5.453,11.903 4.604,11.032 3.816,10.187 3.419,8.86 3.419,7.062 V 0 Z"
             style="fill:#575756;fill-opacity:1;fill-rule:nonzero;stroke:none"
             id="path151" />
        </g>
        <path
           d="m 282.307,43.468 h 3.457 V 28.284 h -3.457 z m 3.906,4.279 c 0,-0.591 -0.216,-1.099 -0.654,-1.534 -0.431,-0.434 -0.954,-0.651 -1.554,-0.651 -0.608,0 -1.127,0.217 -1.566,0.651 -0.436,0.435 -0.653,0.943 -0.653,1.534 0,0.604 0.217,1.123 0.653,1.556 0.439,0.436 0.958,0.652 1.566,0.652 0.6,0 1.123,-0.216 1.554,-0.652 0.438,-0.433 0.654,-0.952 0.654,-1.556"
           style="fill:#575756;fill-opacity:1;fill-rule:nonzero;stroke:none"
           id="path153" />
        <g
           id="g155"
           transform="translate(288.5718,31.1025)">
          <path
             d="M 0,0 2.151,2.213 C 2.759,1.387 3.428,0.739 4.156,0.274 4.855,-0.153 5.62,-0.361 6.431,-0.361 c 0.76,0 1.416,0.153 1.952,0.467 C 8.92,0.42 9.189,0.842 9.189,1.364 9.189,1.89 8.925,2.3 8.412,2.593 7.897,2.888 7.285,3.16 6.576,3.423 5.751,3.688 4.9,3.98 4.032,4.305 2.862,4.732 2.003,5.276 1.454,5.939 0.904,6.609 0.637,7.368 0.637,8.214 c 0,1.252 0.589,2.323 1.76,3.199 1.172,0.878 2.551,1.317 4.15,1.317 1.699,0 3.082,-0.401 4.149,-1.212 0.549,-0.424 0.989,-0.949 1.31,-1.575 L 9.879,7.879 C 9.595,8.366 9.267,8.761 8.885,9.062 8.217,9.646 7.379,9.943 6.368,9.943 5.776,9.943 5.269,9.795 4.832,9.501 4.399,9.21 4.188,8.862 4.188,8.459 4.188,8.012 4.426,7.636 4.911,7.335 5.393,7.032 6.113,6.735 7.06,6.459 7.406,6.355 7.804,6.23 8.246,6.091 9.72,5.608 10.839,4.982 11.591,4.212 c 0.76,-0.766 1.143,-1.686 1.143,-2.759 0,-1.253 -0.608,-2.336 -1.819,-3.259 -1.212,-0.919 -2.76,-1.379 -4.64,-1.379 -1.577,0 -2.972,0.367 -4.184,1.094 C 1.284,-1.604 0.584,-0.909 0,0"
             style="fill:#575756;fill-opacity:1;fill-rule:nonzero;stroke:none"
             id="path157" />
        </g>
        <g
           id="g159"
           transform="translate(320.1504,43.833)">
          <path
             d="m 0,0 c 1.779,0 3.163,-0.609 4.155,-1.834 0.988,-1.221 1.481,-2.853 1.481,-4.895 v -8.82 H 2.243 v 7.941 c 0,1.613 -0.215,2.816 -0.652,3.593 -0.439,0.78 -1.145,1.166 -2.133,1.166 -0.591,0 -1.098,-0.164 -1.536,-0.503 -0.431,-0.329 -0.781,-0.822 -1.046,-1.467 -0.285,-0.666 -0.423,-1.599 -0.423,-2.789 v -7.941 h -3.394 v 7.941 c 0,1.613 -0.221,2.816 -0.668,3.593 -0.44,0.78 -1.15,1.166 -2.119,1.166 -0.582,0 -1.089,-0.164 -1.506,-0.503 -0.41,-0.329 -0.758,-0.822 -1.043,-1.467 -0.304,-0.748 -0.45,-1.739 -0.45,-2.973 v 0.032 -7.789 h -3.4 v 15.184 h 3.211 V -2.392 C -12.07,-0.797 -10.749,0 -8.972,0 c 1.903,0 3.295,-0.919 4.187,-2.758 0.518,0.91 1.155,1.596 1.893,2.063 C -2.159,-0.229 -1.192,0 0,0"
             style="fill:#575756;fill-opacity:1;fill-rule:nonzero;stroke:none"
             id="path161" />
        </g>
      </g>
    </g>
  </g>
</svg>
