<?xml version="1.0" encoding="UTF-8" standalone="no"?>
<!-- Created with Inkscape (http://www.inkscape.org/) -->

<svg
   width="144.99681mm"
   height="34.240082mm"
   viewBox="0 0 144.99681 34.240082"
   version="1.1"
   id="svg5"
   xml:space="preserve"
   xmlns="http://www.w3.org/2000/svg"
   xmlns:svg="http://www.w3.org/2000/svg"><defs
     id="defs2"><clipPath
       clipPathUnits="userSpaceOnUse"
       id="clipPath25"><path
         d="M 0,114.386 H 505.384 V 0 H 0 Z"
         id="path23" /></clipPath></defs><g
     id="layer1"
     transform="translate(-55.106627,-3.0350197)" /><g
     id="g19"
     transform="matrix(0.35277776,0,0,-0.35277778,-15.553231,37.317821)"><g
       id="g21"
       clip-path="url(#clipPath25)"><g
         id="g27"
         transform="translate(119.0229,59.4648)"><path
           d="m 0,0 c -8.431,5.73 -19.228,3.393 -24.89,-5.225 -4.738,-7.197 -11.881,-8.091 -14.652,-8.091 -9.013,0 -15.186,6.342 -17.015,12.907 h -0.004 c -0.016,0.066 -0.032,0.119 -0.048,0.183 -0.019,0.073 -0.039,0.146 -0.058,0.224 -0.716,2.736 -0.898,4.047 -0.898,6.956 0,15.698 16.102,33.175 39.304,33.175 23.75,0 37.342,-18.083 40.843,-28.132 -0.062,0.176 -0.114,0.352 -0.178,0.534 -6.738,19.655 -25.382,33.787 -47.323,33.787 -27.618,0 -50.016,-22.39 -50.016,-50.014 0,-24.692 17.811,-45.827 42.513,-45.827 19.701,0 32.942,11.047 39.016,26.27 C 9.926,-14.927 7.567,-5.142 0,0"
           style="fill:#003863;fill-opacity:1;fill-rule:nonzero;stroke:none"
           id="path29" /></g><g
         id="g31"
         transform="translate(141.9194,70.4863)"><path
           d="m 0,0 c -2.925,9.803 -16.62,29.107 -41.157,29.107 -23.203,0 -39.304,-17.476 -39.304,-33.174 0,-2.91 0.181,-4.22 0.897,-6.956 -0.3,1.195 -0.463,2.398 -0.463,3.568 0,16.347 16.37,27.674 33.197,27.674 22.777,0 41.238,-18.466 41.238,-41.238 0,-17.854 -10.271,-33.304 -25.201,-40.731 l 0.003,-0.012 c 19.246,6.968 32.986,25.4 32.986,47.044 C 2.196,-9.595 1.508,-5.079 0,0"
           style="fill:#e4032e;fill-opacity:1;fill-rule:nonzero;stroke:none"
           id="path33" /></g><g
         id="g35"
         transform="translate(194.0332,68.2197)"><path
           d="m 0,0 v -24.943 h -4.008 v 20.075 l -6.512,-20.075 h -3.864 l -6.513,20.075 v -20.075 h -4.008 V 0 h 6.155 L -12.452,-19.432 -6.155,0 Z"
           style="fill:#575756;fill-opacity:1;fill-rule:nonzero;stroke:none"
           id="path37" /></g><path
         d="m 198.549,61.205 h 4.08 V 43.276 h -4.08 z m 4.618,5.047 c 0,-0.693 -0.257,-1.296 -0.77,-1.808 -0.514,-0.513 -1.127,-0.77 -1.842,-0.77 -0.717,0 -1.33,0.257 -1.844,0.77 -0.513,0.512 -0.77,1.115 -0.77,1.808 0,0.715 0.257,1.328 0.77,1.842 0.514,0.511 1.127,0.768 1.844,0.768 0.715,0 1.328,-0.257 1.842,-0.768 0.513,-0.514 0.77,-1.127 0.77,-1.842"
         style="fill:#575756;fill-opacity:1;fill-rule:nonzero;stroke:none"
         id="path39" /><g
         id="g41"
         transform="translate(211.4609,52.2949)"><path
           d="M 0,0 V -9.019 H -4.039 V 8.91 h 3.897 V 6.513 c 0.477,0.834 1.167,1.514 2.075,2.039 0.906,0.525 1.883,0.787 2.934,0.787 2.123,0 3.822,-0.722 5.099,-2.164 1.276,-1.445 1.913,-3.37 1.913,-5.779 V -9.019 H 7.801 V 0.358 C 7.801,2.266 7.49,3.681 6.871,4.599 6.251,5.518 5.297,5.978 4.01,5.978 3.34,5.978 2.69,5.755 2.057,5.313 1.425,4.873 0.942,4.27 0.608,3.507 0.203,2.624 0,1.454 0,0"
           style="fill:#575756;fill-opacity:1;fill-rule:nonzero;stroke:none"
           id="path43" /></g><path
         d="m 227.896,61.205 h 4.08 V 43.276 h -4.08 z m 4.614,5.047 c 0,-0.693 -0.256,-1.296 -0.769,-1.808 -0.512,-0.513 -1.124,-0.77 -1.843,-0.77 -0.715,0 -1.33,0.257 -1.843,0.77 -0.512,0.512 -0.769,1.115 -0.769,1.808 0,0.715 0.257,1.328 0.769,1.842 0.513,0.511 1.128,0.768 1.843,0.768 0.719,0 1.331,-0.257 1.843,-0.768 0.513,-0.514 0.769,-1.127 0.769,-1.842"
         style="fill:#575756;fill-opacity:1;fill-rule:nonzero;stroke:none"
         id="path45" /><g
         id="g47"
         transform="translate(235.2959,46.6055)"><path
           d="M 0,0 2.541,2.612 C 3.255,1.634 4.043,0.87 4.902,0.322 c 0.835,-0.501 1.729,-0.751 2.683,-0.751 0.908,0 1.677,0.184 2.31,0.555 0.63,0.368 0.947,0.863 0.947,1.485 0,0.62 -0.303,1.103 -0.913,1.45 C 9.321,3.404 8.6,3.732 7.765,4.044 6.79,4.353 5.784,4.698 4.76,5.081 3.375,5.583 2.361,6.226 1.717,7.013 1.072,7.8 0.75,8.696 0.75,9.697 c 0,1.481 0.693,2.739 2.077,3.776 1.383,1.037 3.017,1.555 4.902,1.555 2.003,0 3.637,-0.477 4.905,-1.429 0.641,-0.502 1.154,-1.122 1.536,-1.862 L 11.666,9.305 C 11.332,9.876 10.937,10.342 10.484,10.7 9.696,11.391 8.707,11.737 7.514,11.737 6.826,11.737 6.22,11.563 5.708,11.219 5.194,10.872 4.937,10.461 4.937,9.983 4.937,9.46 5.224,9.019 5.797,8.66 6.369,8.302 7.216,7.955 8.337,7.623 8.743,7.502 9.208,7.359 9.732,7.192 11.475,6.62 12.792,5.881 13.687,4.975 14.582,4.066 15.029,2.982 15.029,1.718 15.029,0.237 14.313,-1.044 12.882,-2.13 11.45,-3.215 9.625,-3.758 7.407,-3.758 5.546,-3.758 3.9,-3.329 2.468,-2.469 1.514,-1.897 0.691,-1.073 0,0"
           style="fill:#575756;fill-opacity:1;fill-rule:nonzero;stroke:none"
           id="path49" /></g><g
         id="g51"
         transform="translate(259.0332,66.9668)"><path
           d="M 0,0 V -5.762 H 3.899 V -9.053 H 0 v -9.126 c 0,-0.859 0.208,-1.448 0.625,-1.77 0.417,-0.322 1.008,-0.485 1.771,-0.485 H 3.899 V -23.69 H 1.43 c -1.931,0 -3.339,0.43 -4.222,1.289 -0.882,0.859 -1.324,2.134 -1.324,3.83 v 9.518 h -3.078 v 3.291 h 3.078 V 0 Z"
           style="fill:#575756;fill-opacity:1;fill-rule:nonzero;stroke:none"
           id="path53" /></g><g
         id="g55"
         transform="translate(266.3252,43.2764)"><path
           d="m 0,0 v 17.929 h 3.83 v -2.683 c 0.595,0.882 1.323,1.561 2.182,2.038 1.029,0.62 2.231,0.931 3.614,0.931 h 0.287 v -3.65 H 9.483 C 7.789,14.565 6.441,14.052 5.439,13.026 4.509,12.025 4.044,10.463 4.044,8.338 V 0 Z"
           style="fill:#575756;fill-opacity:1;fill-rule:nonzero;stroke:none"
           id="path57" /></g><g
         id="g59"
         transform="translate(284.8184,43.957)"><path
           d="m 0,0 -7.049,17.248 h 4.222 L 2.04,5.011 6.872,17.248 h 4.187 L 1.073,-7.621 h -4.15 z"
           style="fill:#575756;fill-opacity:1;fill-rule:nonzero;stroke:none"
           id="path61" /></g><g
         id="g63"
         transform="translate(313.6978,46.2129)"><path
           d="m 0,0 c 1.48,0 2.75,0.564 3.815,1.698 1.058,1.134 1.588,2.57 1.588,4.312 0,1.718 -0.53,3.155 -1.588,4.312 C 2.75,11.48 1.48,12.06 0,12.06 -1.456,12.06 -2.714,11.48 -3.775,10.322 -4.836,9.165 -5.367,7.728 -5.367,6.01 -5.367,4.268 -4.836,2.832 -3.775,1.698 -2.714,0.564 -1.456,0 0,0 m 0,-3.365 c -2.624,0 -4.861,0.901 -6.709,2.701 -1.849,1.803 -2.773,4.027 -2.773,6.674 0,2.648 0.924,4.88 2.773,6.692 1.848,1.813 4.085,2.719 6.709,2.719 2.648,0 4.89,-0.906 6.729,-2.719 C 8.565,10.89 9.483,8.658 9.483,6.01 9.483,3.363 8.565,1.139 6.729,-0.664 4.89,-2.464 2.648,-3.365 0,-3.365"
           style="fill:#575756;fill-opacity:1;fill-rule:nonzero;stroke:none"
           id="path65" /></g><g
         id="g67"
         transform="translate(327.5752,63.1016)"><path
           d="m 0,0 c 0,1.67 0.47,2.939 1.413,3.812 0.942,0.87 2.383,1.306 4.313,1.306 H 7.693 V 1.861 H 6.515 C 5.75,1.861 5.159,1.701 4.742,1.379 4.325,1.057 4.116,0.466 4.116,-0.393 V -1.896 H 7.693 V -5.187 H 4.116 V -19.825 H 0 v 14.638 h -3.078 v 3.291 H 0 Z"
           style="fill:#575756;fill-opacity:1;fill-rule:nonzero;stroke:none"
           id="path69" /></g><g
         id="g71"
         transform="translate(344.3833,43.2764)"><path
           d="m 0,0 v 3.508 h 3.503 c 1.025,0 1.863,0.335 2.505,1.002 0.619,0.62 0.93,1.562 0.93,2.827 v 17.606 h 4.186 V 6.872 C 11.124,4.63 10.431,2.9 9.048,1.684 7.761,0.562 5.936,0 3.574,0 Z"
           style="fill:#575756;fill-opacity:1;fill-rule:nonzero;stroke:none"
           id="path73" /></g><g
         id="g75"
         transform="translate(371.8691,52.1885)"><path
           d="M 0,0 V 9.017 H 4.079 V -8.912 h -3.9 v 2.362 c -0.501,-0.882 -1.17,-1.551 -2.004,-2.004 -0.978,-0.523 -1.99,-0.787 -3.043,-0.787 -2.098,0 -3.787,0.717 -5.062,2.147 -1.277,1.432 -1.914,3.365 -1.914,5.798 V 9.017 H -7.8 v -9.412 c 0,-1.883 0.315,-3.286 0.947,-4.205 0.631,-0.918 1.593,-1.376 2.881,-1.376 0.643,0 1.287,0.219 1.932,0.662 0.644,0.441 1.134,1.032 1.468,1.771 C -0.191,-2.661 0,-1.48 0,0"
           style="fill:#575756;fill-opacity:1;fill-rule:nonzero;stroke:none"
           id="path77" /></g><g
         id="g79"
         transform="translate(379.0195,46.6055)"><path
           d="M 0,0 2.54,2.612 C 3.255,1.634 4.042,0.87 4.902,0.322 5.736,-0.179 6.63,-0.429 7.585,-0.429 c 0.908,0 1.677,0.184 2.309,0.555 0.632,0.368 0.949,0.863 0.949,1.485 0,0.62 -0.305,1.103 -0.913,1.45 C 9.325,3.404 8.6,3.732 7.764,4.044 6.786,4.353 5.785,4.698 4.759,5.081 3.374,5.583 2.362,6.226 1.718,7.013 1.074,7.8 0.751,8.696 0.751,9.697 c 0,1.481 0.691,2.739 2.077,3.776 1.381,1.037 3.017,1.555 4.902,1.555 2.004,0 3.637,-0.477 4.903,-1.429 0.641,-0.502 1.155,-1.122 1.537,-1.862 L 11.665,9.305 C 11.331,9.876 10.938,10.342 10.485,10.7 9.697,11.391 8.707,11.737 7.514,11.737 6.827,11.737 6.22,11.563 5.707,11.219 5.193,10.872 4.937,10.461 4.937,9.983 4.937,9.46 5.225,9.019 5.796,8.66 6.369,8.302 7.216,7.955 8.338,7.623 8.743,7.502 9.208,7.359 9.734,7.192 c 1.74,-0.572 3.058,-1.311 3.952,-2.217 0.896,-0.909 1.342,-1.993 1.342,-3.257 0,-1.481 -0.715,-2.762 -2.146,-3.848 -1.43,-1.085 -3.257,-1.628 -5.474,-1.628 -1.861,0 -3.509,0.429 -4.939,1.289 C 1.515,-1.897 0.691,-1.073 0,0"
           style="fill:#575756;fill-opacity:1;fill-rule:nonzero;stroke:none"
           id="path81" /></g><g
         id="g83"
         transform="translate(402.6665,66.9668)"><path
           d="M 0,0 V -5.762 H 3.899 V -9.053 H 0 v -9.126 c 0,-0.859 0.208,-1.448 0.625,-1.77 0.419,-0.322 1.009,-0.485 1.772,-0.485 H 3.899 V -23.69 H 1.43 c -1.93,0 -3.339,0.43 -4.221,1.289 -0.882,0.859 -1.323,2.134 -1.323,3.83 v 9.518 h -3.078 v 3.291 h 3.078 V 0 Z"
           style="fill:#575756;fill-opacity:1;fill-rule:nonzero;stroke:none"
           id="path85" /></g><path
         d="m 410.065,61.205 h 4.083 V 43.276 h -4.083 z m 4.618,5.047 c 0,-0.693 -0.257,-1.296 -0.77,-1.808 -0.514,-0.513 -1.123,-0.77 -1.842,-0.77 -0.715,0 -1.33,0.257 -1.843,0.77 -0.514,0.512 -0.771,1.115 -0.771,1.808 0,0.715 0.257,1.328 0.771,1.842 0.513,0.511 1.128,0.768 1.843,0.768 0.719,0 1.328,-0.257 1.842,-0.768 0.513,-0.514 0.77,-1.127 0.77,-1.842"
         style="fill:#575756;fill-opacity:1;fill-rule:nonzero;stroke:none"
         id="path87" /><g
         id="g89"
         transform="translate(417.5005,52.2227)"><path
           d="m 0,0 c 0,2.577 0.972,4.79 2.917,6.639 1.943,1.848 4.407,2.772 7.388,2.772 2.339,0 4.533,-0.751 6.586,-2.254 L 15.567,3.974 C 13.779,5.356 12.023,6.05 10.305,6.05 8.469,6.05 6.978,5.464 5.834,4.296 4.688,3.126 4.116,1.693 4.116,0 c 0,-1.693 0.572,-3.119 1.718,-4.275 1.144,-1.158 2.635,-1.735 4.471,-1.735 1.746,0 3.52,0.679 5.333,2.038 l 1.323,-3.184 c -1.98,-1.478 -4.199,-2.219 -6.656,-2.219 -2.981,0 -5.445,0.918 -7.388,2.755 C 0.972,-4.781 0,-2.576 0,0"
           style="fill:#575756;fill-opacity:1;fill-rule:nonzero;stroke:none"
           id="path91" /></g><g
         id="g93"
         transform="translate(441.0405,53.6543)"><path
           d="M 0,0 H 9.947 C 9.904,1.168 9.411,2.236 8.48,3.203 7.55,4.17 6.368,4.652 4.94,4.652 3.458,4.652 2.242,4.129 1.287,3.077 0.596,2.29 0.167,1.265 0,0 m 0.07,-3.22 c 0.24,-1.097 0.755,-1.992 1.539,-2.683 1.146,-1.051 2.661,-1.575 4.546,-1.575 1.979,0 3.828,0.727 5.55,2.183 l 1.212,-3.007 c -1.933,-1.669 -4.223,-2.505 -6.871,-2.505 -3.029,0 -5.491,0.86 -7.388,2.578 -1.897,1.718 -2.845,3.971 -2.845,6.763 0,2.743 0.841,5.003 2.522,6.779 1.682,1.778 3.886,2.666 6.605,2.666 2.669,0 4.859,-0.881 6.563,-2.648 1.709,-1.765 2.559,-3.947 2.559,-6.548 0,-0.715 -0.059,-1.383 -0.178,-2.003 z"
           style="fill:#575756;fill-opacity:1;fill-rule:nonzero;stroke:none"
           id="path95" /></g></g></g></svg>
