<?xml version="1.0" encoding="UTF-8" standalone="no"?>
<!-- Created with Inkscape (http://www.inkscape.org/) -->

<svg
   xmlns:dc="http://purl.org/dc/elements/1.1/"
   xmlns:cc="http://creativecommons.org/ns#"
   xmlns:rdf="http://www.w3.org/1999/02/22-rdf-syntax-ns#"
   xmlns:svg="http://www.w3.org/2000/svg"
   xmlns="http://www.w3.org/2000/svg"
   version="1.1"
   width="715.74799"
   height="388.70078"
   id="svg4418">
  <defs
     id="defs4420" />
  <metadata
     id="metadata4423">
    <rdf:RDF>
      <cc:Work
         rdf:about="">
        <dc:format>image/svg+xml</dc:format>
        <dc:type
           rdf:resource="http://purl.org/dc/dcmitype/StillImage" />
        <dc:title></dc:title>
      </cc:Work>
    </rdf:RDF>
  </metadata>
  <g
     transform="translate(-13.782572,-438.20948)"
     id="layer1">
    <g
       transform="matrix(9.6774982,0,0,9.6774982,-2211.893,-3554.1472)"
       id="g4457">
      <path
         d="m 280.38974,416.33101 c -12.81,0 -23.18875,-7.73625 -23.18875,0.0362 0,4.2025 3.1475,10.25125 7.95875,14.98625 0.14,0.13875 0.245,0.22625 0.46625,0.33875 0.25875,0.13 0.69875,0.13875 0.69875,0.13875 l 4.42375,0 c 0,0 0.545,0.0225 0.605,-0.15125 0.0662,-0.1875 -0.065,-0.32 -0.34125,-0.54625 -4.54875,-3.75 -7.11875,-9.3725 -7.11875,-12.96125 0,-5.7575 7.00625,-0.27375 16.49625,-0.27375 9.485,0 16.49375,-5.48375 16.49375,0.27375 0,3.58875 -2.57,9.21125 -7.11875,12.96125 -0.27625,0.22625 -0.4075,0.35875 -0.34125,0.54625 0.0625,0.17375 0.605,0.15125 0.605,0.15125 l 4.42375,0 c 0,0 0.4425,-0.009 0.69875,-0.13875 0.22125,-0.1125 0.32625,-0.2 0.46875,-0.33875 4.80625,-4.735 7.95875,-10.78375 7.95875,-14.98625 0,-7.7725 -10.38375,-0.0362 -23.18875,-0.0362"
         id="path3053"
         style="fill:#c01920;fill-opacity:1;fill-rule:nonzero;stroke:none" />
      <g
         transform="matrix(1.25,0,0,-1.25,269.12024,433.90676)"
         id="g3055">
        <path
           d="m 0,0 0,-7.658 c 0,-0.115 -0.096,-0.213 -0.213,-0.213 l -5.416,0 c -0.119,0 -0.215,0.098 -0.215,0.213 l 0,0.933 c 0,0.118 0.096,0.213 0.215,0.213 l 3.748,0 c 0.117,0 0.213,0.096 0.213,0.213 l 0,3.953 c 0,0.119 -0.096,0.213 -0.213,0.213 l -5.482,0 c -0.117,0 -0.213,-0.096 -0.213,-0.213 l 0,-1.093 c 0,-0.118 0.096,-0.213 0.213,-0.213 l 3.738,0 c 0.119,0 0.215,-0.096 0.215,-0.215 l 0,-0.916 c 0,-0.119 -0.096,-0.213 -0.215,-0.213 l -3.738,0 c -0.117,0 -0.213,-0.096 -0.213,-0.215 l 0,-3.959 c 0,-0.119 0.096,-0.217 0.213,-0.217 l 8.992,0 c 0.117,0 0.213,0.098 0.213,0.217 L 1.842,0 0,0 z"
           id="path3057"
           style="fill:#00305b;fill-opacity:1;fill-rule:nonzero;stroke:none" />
      </g>
      <g
         transform="matrix(1.25,0,0,-1.25,257.15424,439.79539)"
         id="g3059">
        <path
           d="m 0,0 -5.838,0 c -0.118,0 -0.213,0.096 -0.213,0.213 l 0,2.146 c 0,0.118 -0.095,0.213 -0.213,0.213 l -1.477,0 c -0.117,0 -0.213,-0.095 -0.213,-0.213 l 0,-3.738 c 0,-0.117 0.096,-0.213 0.213,-0.213 l 7.741,0 c 0.117,0 0.213,0.096 0.213,0.213 l 0,1.164 C 0.213,-0.096 0.117,0 0,0"
           id="path3061"
           style="fill:#00305b;fill-opacity:1;fill-rule:nonzero;stroke:none" />
      </g>
      <g
         transform="matrix(1.25,0,0,-1.25,257.79637,443.64801)"
         id="g3063">
        <path
           d="M 0,0 -8.768,0 C -8.886,0 -8.98,-0.098 -8.98,-0.215 l 0,-1.164 c 0,-0.119 0.094,-0.215 0.211,-0.215 l 3.468,0 c 0.117,0 0.213,-0.094 0.213,-0.211 l 0,-3.058 1.919,0 0,3.058 c 0,0.117 0.095,0.211 0.212,0.211 l 2.957,0 c 0.117,0 0.213,0.096 0.213,0.215 l 0,1.164 C 0.213,-0.098 0.117,0 0,0"
           id="path3065"
           style="fill:#00305b;fill-opacity:1;fill-rule:nonzero;stroke:none" />
      </g>
      <g
         transform="matrix(1.25,0,0,-1.25,242.72674,439.30714)"
         id="g3067">
        <path
           d="m 0,0 c 0,-0.117 -0.096,-0.213 -0.213,-0.213 l -1.052,0 c -0.117,0 -0.212,0.096 -0.212,0.213 l 0,1.996 c 0,0.115 -0.095,0.211 -0.211,0.211 l -1.282,0 c -0.118,0 -0.212,-0.096 -0.212,-0.211 l 0,-6.865 c 0,-0.115 0.094,-0.213 0.212,-0.213 l 1.281,0 c 0.116,0 0.212,0.096 0.212,0.213 l 0,2.904 c 0,0.119 0.095,0.215 0.212,0.215 l 1.052,0 C -0.096,-1.75 0,-1.846 0,-1.965 l 0,-2.533 0,-0.371 c 0,-0.115 0.095,-0.213 0.212,-0.213 l 1.28,0 c 0.117,0 0.213,0.096 0.213,0.213 l 0,6.865 c 0,0.115 -0.096,0.211 -0.212,0.211 l -1.281,0 C 0.095,2.207 0,2.111 0,1.996 L 0,0 z"
           id="path3069"
           style="fill:#00305b;fill-opacity:1;fill-rule:nonzero;stroke:none" />
      </g>
      <g
         transform="matrix(1.25,0,0,-1.25,238.70949,443.44039)"
         id="g3071">
        <path
           d="m 0,0 c -0.467,0.029 -0.851,0.334 -0.851,0.334 -0.596,0.422 -1.381,1.377 -1.381,3.691 l 0,1.256 c 0,0.119 -0.095,0.213 -0.213,0.213 l -1.327,0 C -3.89,5.494 -3.986,5.4 -3.986,5.281 l 0,-1.256 c 0,-2.314 -0.798,-3.269 -1.395,-3.695 0,0 -0.3,-0.24 -0.66,-0.357 -0.15,-0.049 -0.325,-0.077 -0.455,-0.09 l 0.018,0 c -0.11,0 -0.201,-0.09 -0.209,-0.201 l 0,-1.245 c 0,-0.113 0.091,-0.205 0.206,-0.208 0.175,0.003 0.451,0.017 0.775,0.08 0.676,0.121 1.314,0.535 1.314,0.535 0.541,0.326 0.954,0.801 1.284,1.328 0.328,-0.527 0.741,-1.002 1.282,-1.328 0,0 0.638,-0.414 1.314,-0.535 0.556,-0.104 0.981,-0.08 0.981,-0.08 l 0,1.767 C 0.469,-0.004 0.337,-0.023 0,0"
           id="path3073"
           style="fill:#00305b;fill-opacity:1;fill-rule:nonzero;stroke:none" />
      </g>
      <g
         transform="matrix(1.25,0,0,-1.25,283.60749,448.93364)"
         id="g3075">
        <path
           d="m 0,0 c 0,-0.537 -0.436,-0.977 -0.975,-0.977 -0.539,0 -0.976,0.44 -0.976,0.977 0,0.539 0.437,0.975 0.976,0.975 C -0.436,0.975 0,0.539 0,0 m 0.135,6.613 2.008,0 0,1.569 -2.008,0 c -0.119,0 -0.213,0.095 -0.213,0.213 l 0,1.623 c 0,0.117 -0.096,0.212 -0.215,0.212 l -1.363,0 c -0.119,0 -0.213,-0.095 -0.213,-0.212 l 0,-3.381 c 0,-0.119 -0.098,-0.217 -0.215,-0.217 l -4.049,0 c -0.119,0 -0.215,0.098 -0.215,0.217 l 0,1.443 c 0,0.115 0.096,0.213 0.215,0.213 l 2.983,0 c 0.119,0 0.214,0.094 0.214,0.213 l 0,1.164 c 0,0.117 -0.095,0.213 -0.214,0.213 l -4.805,0 c -0.117,0 -0.213,-0.096 -0.213,-0.213 l 0,-4.627 c 0,-0.119 0.096,-0.213 0.215,-0.213 l 6.084,0 0,-2.26 C -2.936,2.201 -3.701,1.191 -3.701,0 c 0,-1.506 1.221,-2.727 2.726,-2.727 1.506,0 2.727,1.221 2.727,2.727 0,1.191 -0.766,2.201 -1.83,2.57 l 0,3.828 c 0,0.12 0.094,0.215 0.213,0.215"
           id="path3077"
           style="fill:#00305b;fill-opacity:1;fill-rule:nonzero;stroke:none" />
      </g>
    </g>
  </g>
</svg>
